ply
format ascii 1.0
comment Created by Blender 2.60 (sub 0) - www.blender.org, source file: ''
element vertex 162
property float x
property float y
property float z
property float nx
property float ny
property float nz
element face 320
property list uchar uint vertex_indices
end_header
0.052790 -0.688185 -0.723612 0.060305 -0.682669 -0.728202
0.262869 -0.809012 -0.525738 0.262856 -0.808985 -0.525712
-0.007026 -0.862665 -0.505728 -0.009033 -0.862819 -0.505417
-0.228103 -0.702042 -0.674615 -0.228523 -0.703330 -0.673086
-0.162456 -0.499995 -0.850654 -0.162450 -0.499985 -0.850642
-0.276385 -0.850640 -0.447215 -0.276376 -0.850642 -0.447218
0.138197 -0.425319 -0.894430 0.141057 -0.434126 -0.889706
0.361803 -0.587779 -0.723612 0.352458 -0.587725 -0.728202
0.425323 -0.309011 -0.850654 0.425306 -0.309000 -0.850642
0.597194 -0.433882 -0.674615 0.598285 -0.434675 -0.673086
0.723600 -0.525720 -0.447215 0.723594 -0.525712 -0.447218
0.512753 -0.693775 -0.505727 0.514481 -0.692709 -0.505417
0.221076 -0.160619 -0.961939 0.219459 -0.159459 -0.962493
-0.084442 -0.259889 -0.961939 -0.083834 -0.258003 -0.962493
0.000000 0.000000 -1.000000 0.000000 0.000000 -1.000000
0.670817 -0.162457 -0.723611 0.667898 -0.153600 -0.728202
0.850648 0.000000 -0.525736 0.850642 0.000000 -0.525712
0.818272 -0.273262 -0.505726 0.817774 -0.275216 -0.505417
0.447210 0.000000 -0.894429 0.456465 0.000000 -0.889706
0.670817 0.162457 -0.723611 0.667898 0.153600 -0.728202
0.425323 0.309011 -0.850654 0.425306 0.309000 -0.850642
0.597194 0.433882 -0.674615 0.598285 0.434675 -0.673086
0.723600 0.525720 -0.447215 0.723594 0.525712 -0.447218
0.818272 0.273262 -0.505726 0.817774 0.275216 -0.505417
0.221076 0.160619 -0.961939 0.219459 0.159459 -0.962493
-0.638195 -0.262864 -0.723609 -0.630634 -0.268288 -0.728202
-0.688189 -0.499997 -0.525736 -0.688162 -0.499985 -0.525712
-0.822618 -0.259890 -0.505724 -0.823359 -0.258003 -0.505417
-0.738174 0.000000 -0.674610 -0.739525 0.000000 -0.673086
-0.525730 0.000000 -0.850652 -0.525712 0.000000 -0.850642
-0.894425 0.000000 -0.447215 -0.894406 0.000000 -0.447188
-0.361800 -0.262863 -0.894429 -0.369274 -0.268288 -0.889706
-0.447211 -0.525727 -0.723612 -0.450056 -0.516831 -0.728202
-0.501373 -0.702043 -0.505727 -0.499802 -0.703330 -0.505417
-0.273266 0.000000 -0.961939 -0.271279 0.000000 -0.962493
-0.447211 0.525727 -0.723612 -0.450056 0.516831 -0.728202
-0.688189 0.499997 -0.525736 -0.688162 0.499985 -0.525712
-0.501373 0.702043 -0.505727 -0.499802 0.703330 -0.505417
-0.228103 0.702042 -0.674615 -0.228523 0.703330 -0.673086
-0.162456 0.499995 -0.850654 -0.162450 0.499985 -0.850642
-0.276385 0.850640 -0.447215 -0.276376 0.850642 -0.447218
-0.361800 0.262863 -0.894429 -0.369274 0.268288 -0.889706
-0.638195 0.262864 -0.723609 -0.630634 0.268288 -0.728202
-0.822618 0.259890 -0.505724 -0.823359 0.258003 -0.505417
-0.084442 0.259889 -0.961939 -0.083834 0.258003 -0.962493
0.361803 0.587779 -0.723612 0.352458 0.587725 -0.728202
0.262869 0.809012 -0.525738 0.262856 0.808985 -0.525712
0.512753 0.693775 -0.505727 0.514481 0.692709 -0.505417
0.138197 0.425319 -0.894430 0.141057 0.434126 -0.889706
0.052790 0.688185 -0.723612 0.060305 0.682669 -0.728202
-0.007026 0.862665 -0.505728 -0.009033 0.862819 -0.505417
0.947213 -0.162458 -0.276396 0.950011 -0.153600 -0.271706
0.951058 -0.309013 0.000000 0.951048 -0.309000 0.000000
0.870465 -0.433883 -0.232456 0.869594 -0.434675 -0.234107
0.947213 0.162458 -0.276396 0.950011 0.153600 -0.271706
1.000000 0.000000 0.000000 0.999939 0.000000 -0.010376
0.951058 0.309013 0.000000 0.951048 0.309000 0.000000
0.959253 0.160620 0.232455 0.959014 0.159459 0.234107
0.894425 0.000000 0.447215 0.894406 0.000000 0.447188
0.959253 -0.160620 0.232455 0.959014 -0.159459 0.234107
0.870465 0.433883 -0.232456 0.869594 0.434675 -0.234107
0.138199 -0.951055 -0.276397 0.147465 -0.950987 -0.271706
0.000000 -1.000000 0.000000 0.000000 -1.000000 0.000000
-0.143661 -0.961938 -0.232456 -0.144688 -0.961364 -0.234107
0.447216 -0.850648 -0.276397 0.439650 -0.856044 -0.271706
0.309017 -0.951056 0.000000 0.309000 -0.950987 -0.010376
0.587786 -0.809017 0.000000 0.587756 -0.809015 0.000000
0.449185 -0.862668 0.232457 0.448012 -0.862819 0.234107
0.276385 -0.850640 0.447215 0.276376 -0.850642 0.447218
0.143661 -0.961938 0.232456 0.144688 -0.961364 0.234107
0.681641 -0.693779 -0.232457 0.682150 -0.692709 -0.234107
-0.861804 -0.425322 -0.276396 -0.858882 -0.434126 -0.271706
-0.951058 -0.309013 0.000000 -0.951048 -0.309000 0.000000
-0.959253 -0.160620 -0.232455 -0.959014 -0.159459 -0.234107
-0.670820 -0.688190 -0.276396 -0.678304 -0.682669 -0.271706
-0.809018 -0.587783 0.000000 -0.808954 -0.587725 -0.010376
-0.587786 -0.809017 0.000000 -0.587756 -0.809015 0.000000
-0.681641 -0.693779 0.232457 -0.682150 -0.692709 0.234107
-0.723600 -0.525720 0.447215 -0.723594 -0.525712 0.447218
-0.870465 -0.433883 0.232456 -0.869594 -0.434675 0.234107
-0.449185 -0.862668 -0.232457 -0.448012 -0.862819 -0.234107
-0.670820 0.688190 -0.276396 -0.678304 0.682669 -0.271706
-0.587786 0.809017 0.000000 -0.587756 0.809015 0.000000
-0.449185 0.862668 -0.232457 -0.448012 0.862819 -0.234107
-0.861804 0.425322 -0.276396 -0.858882 0.434126 -0.271706
-0.809018 0.587783 0.000000 -0.808954 0.587725 -0.010376
-0.951058 0.309013 0.000000 -0.951048 0.309000 0.000000
-0.870465 0.433883 0.232456 -0.869594 0.434675 0.234107
-0.723600 0.525720 0.447215 -0.723594 0.525712 0.447218
-0.681641 0.693779 0.232457 -0.682150 0.692709 0.234107
-0.959253 0.160620 -0.232455 -0.959014 0.159459 -0.234107
0.447216 0.850648 -0.276397 0.439650 0.856044 -0.271706
0.587786 0.809017 0.000000 0.587756 0.809015 0.000000
0.681641 0.693779 -0.232457 0.682150 0.692709 -0.234107
0.138199 0.951055 -0.276397 0.147465 0.950987 -0.271706
0.309017 0.951056 0.000000 0.309000 0.950987 -0.010376
0.000000 1.000000 0.000000 0.000000 1.000000 0.000000
0.143661 0.961938 0.232456 0.144688 0.961364 0.234107
0.276385 0.850640 0.447215 0.276376 0.850642 0.447218
0.449185 0.862668 0.232457 0.448012 0.862819 0.234107
-0.143661 0.961938 -0.232456 -0.144688 0.961364 -0.234107
0.670820 -0.688190 0.276396 0.678304 -0.682669 0.271706
0.688189 -0.499997 0.525736 0.688162 -0.499985 0.525712
0.501373 -0.702043 0.505727 0.499802 -0.703330 0.505417
0.809018 -0.587783 0.000000 0.808954 -0.587725 0.010376
0.861804 -0.425322 0.276396 0.858882 -0.434126 0.271706
0.822618 -0.259890 0.505724 0.823359 -0.258003 0.505417
-0.447216 -0.850648 0.276397 -0.439650 -0.856044 0.271706
-0.262869 -0.809012 0.525738 -0.262856 -0.808985 0.525712
-0.512753 -0.693775 0.505727 -0.514481 -0.692709 0.505417
-0.309017 -0.951056 0.000000 -0.309000 -0.950987 0.010376
-0.138199 -0.951055 0.276397 -0.147465 -0.950987 0.271706
0.007026 -0.862665 0.505728 0.009033 -0.862819 0.505417
-0.947213 0.162458 0.276396 -0.950011 0.153600 0.271706
-0.850648 0.000000 0.525736 -0.850642 0.000000 0.525712
-0.818272 0.273262 0.505726 -0.817774 0.275216 0.505417
-1.000000 0.000000 0.000000 -0.999939 0.000000 0.010376
-0.947213 -0.162458 0.276396 -0.950011 -0.153600 0.271706
-0.818272 -0.273262 0.505726 -0.817774 -0.275216 0.505417
-0.138199 0.951055 0.276397 -0.147465 0.950987 0.271706
-0.262869 0.809012 0.525738 -0.262856 0.808985 0.525712
0.007026 0.862665 0.505728 0.009033 0.862819 0.505417
-0.309017 0.951056 0.000000 -0.309000 0.950987 0.010376
-0.447216 0.850648 0.276397 -0.439650 0.856044 0.271706
-0.512753 0.693775 0.505727 -0.514481 0.692709 0.505417
0.861804 0.425322 0.276396 0.858882 0.434126 0.271706
0.688189 0.499997 0.525736 0.688162 0.499985 0.525712
0.822618 0.259890 0.505724 0.823359 0.258003 0.505417
0.809018 0.587783 0.000000 0.808954 0.587725 0.010376
0.670820 0.688190 0.276396 0.678304 0.682669 0.271706
0.501373 0.702043 0.505727 0.499802 0.703330 0.505417
0.447211 -0.525727 0.723611 0.450056 -0.516831 0.728202
0.162456 -0.499995 0.850654 0.162450 -0.499985 0.850642
0.228103 -0.702042 0.674615 0.228523 -0.703330 0.673086
0.638195 -0.262864 0.723609 0.630634 -0.268288 0.728202
0.361800 -0.262863 0.894429 0.369274 -0.268288 0.889706
0.525730 0.000000 0.850652 0.525712 0.000000 0.850642
0.273266 0.000000 0.961939 0.271279 0.000000 0.962493
0.000000 0.000000 1.000000 0.000000 0.000000 1.000000
0.084442 -0.259889 0.961939 0.083834 -0.258003 0.962493
0.738174 0.000000 0.674610 0.739525 0.000000 0.673086
-0.361804 -0.587779 0.723612 -0.352458 -0.587725 0.728202
-0.425323 -0.309011 0.850654 -0.425306 -0.309000 0.850642
-0.597194 -0.433882 0.674615 -0.598285 -0.434675 0.673086
-0.052790 -0.688185 0.723612 -0.060305 -0.682669 0.728202
-0.138197 -0.425320 0.894430 -0.141057 -0.434126 0.889706
-0.221076 -0.160619 0.961939 -0.219459 -0.159459 0.962493
-0.670817 0.162457 0.723611 -0.667898 0.153600 0.728202
-0.425323 0.309011 0.850654 -0.425306 0.309000 0.850642
-0.597194 0.433882 0.674615 -0.598285 0.434675 0.673086
-0.670817 -0.162457 0.723611 -0.667898 -0.153600 0.728202
-0.447210 -0.000000 0.894429 -0.456465 0.000000 0.889706
-0.221076 0.160619 0.961939 -0.219459 0.159459 0.962493
-0.052790 0.688185 0.723612 -0.060305 0.682669 0.728202
0.162456 0.499995 0.850654 0.162450 0.499985 0.850642
0.228103 0.702042 0.674615 0.228523 0.703330 0.673086
-0.361803 0.587779 0.723612 -0.352458 0.587725 0.728202
-0.138197 0.425319 0.894430 -0.141057 0.434126 0.889706
0.084442 0.259889 0.961939 0.083834 0.258003 0.962493
0.638195 0.262864 0.723609 0.630634 0.268288 0.728202
0.447211 0.525727 0.723612 0.450056 0.516831 0.728202
0.361800 0.262863 0.894429 0.369274 0.268288 0.889706
3 0 1 2
3 2 3 0
3 4 0 3
3 3 2 5
3 0 4 6
3 6 7 0
3 1 0 7
3 7 6 8
3 9 10 11
3 11 7 9
3 8 9 7
3 7 11 1
3 12 8 6
3 6 13 12
3 14 12 13
3 13 6 4
3 15 16 17
3 17 9 15
3 8 15 9
3 9 17 10
3 15 8 18
3 18 19 15
3 16 15 19
3 19 18 20
3 21 22 23
3 23 19 21
3 20 21 19
3 19 23 16
3 24 20 18
3 18 12 24
3 14 24 12
3 12 18 8
3 25 26 27
3 27 28 25
3 29 25 28
3 28 27 30
3 25 29 31
3 31 32 25
3 26 25 32
3 32 31 4
3 3 5 33
3 33 32 3
3 4 3 32
3 32 33 26
3 13 4 31
3 31 34 13
3 14 13 34
3 34 31 29
3 35 36 37
3 37 38 35
3 39 35 38
3 38 37 40
3 35 39 41
3 41 42 35
3 36 35 42
3 42 41 29
3 28 30 43
3 43 42 28
3 29 28 42
3 42 43 36
3 34 29 41
3 41 44 34
3 14 34 44
3 44 41 39
3 45 46 47
3 47 21 45
3 20 45 21
3 21 47 22
3 45 20 48
3 48 49 45
3 46 45 49
3 49 48 39
3 38 40 50
3 50 49 38
3 39 38 49
3 49 50 46
3 44 39 48
3 48 24 44
3 14 44 24
3 24 48 20
3 51 52 53
3 53 17 51
3 16 51 17
3 17 53 10
3 51 16 54
3 54 55 51
3 52 51 55
3 55 54 56
3 57 58 59
3 59 55 57
3 56 57 55
3 55 59 52
3 60 56 54
3 54 23 60
3 22 60 23
3 23 54 16
3 61 62 63
3 63 2 61
3 1 61 2
3 2 63 5
3 61 1 64
3 64 65 61
3 62 61 65
3 65 64 66
3 67 68 69
3 69 65 67
3 66 67 65
3 65 69 62
3 70 66 64
3 64 11 70
3 10 70 11
3 11 64 1
3 71 72 73
3 73 27 71
3 26 71 27
3 27 73 30
3 71 26 74
3 74 75 71
3 72 71 75
3 75 74 76
3 77 78 79
3 79 75 77
3 76 77 75
3 75 79 72
3 80 76 74
3 74 33 80
3 5 80 33
3 33 74 26
3 81 82 83
3 83 37 81
3 36 81 37
3 37 83 40
3 81 36 84
3 84 85 81
3 82 81 85
3 85 84 86
3 87 88 89
3 89 85 87
3 86 87 85
3 85 89 82
3 90 86 84
3 84 43 90
3 30 90 43
3 43 84 36
3 91 92 93
3 93 47 91
3 46 91 47
3 47 93 22
3 91 46 94
3 94 95 91
3 92 91 95
3 95 94 96
3 97 98 99
3 99 95 97
3 96 97 95
3 95 99 92
3 100 96 94
3 94 50 100
3 40 100 50
3 50 94 46
3 101 102 103
3 103 67 101
3 66 101 67
3 67 103 68
3 101 66 104
3 104 105 101
3 102 101 105
3 105 104 52
3 59 58 106
3 106 105 59
3 52 59 105
3 105 106 102
3 53 52 104
3 104 70 53
3 10 53 70
3 70 104 66
3 107 108 109
3 109 77 107
3 76 107 77
3 77 109 78
3 107 76 110
3 110 111 107
3 108 107 111
3 111 110 62
3 69 68 112
3 112 111 69
3 62 69 111
3 111 112 108
3 63 62 110
3 110 80 63
3 5 63 80
3 80 110 76
3 113 114 115
3 115 87 113
3 86 113 87
3 87 115 88
3 113 86 116
3 116 117 113
3 114 113 117
3 117 116 72
3 79 78 118
3 118 117 79
3 72 79 117
3 117 118 114
3 73 72 116
3 116 90 73
3 30 73 90
3 90 116 86
3 119 120 121
3 121 97 119
3 96 119 97
3 97 121 98
3 119 96 122
3 122 123 119
3 120 119 123
3 123 122 82
3 89 88 124
3 124 123 89
3 82 89 123
3 123 124 120
3 83 82 122
3 122 100 83
3 40 83 100
3 100 122 96
3 125 126 127
3 127 57 125
3 56 125 57
3 57 127 58
3 125 56 128
3 128 129 125
3 126 125 129
3 129 128 92
3 99 98 130
3 130 129 99
3 92 99 129
3 129 130 126
3 93 92 128
3 128 60 93
3 22 93 60
3 60 128 56
3 131 132 133
3 133 103 131
3 102 131 103
3 103 133 68
3 131 102 134
3 134 135 131
3 132 131 135
3 135 134 136
3 137 138 139
3 139 135 137
3 136 137 135
3 135 139 132
3 140 136 134
3 134 106 140
3 58 140 106
3 106 134 102
3 141 142 143
3 143 109 141
3 108 141 109
3 109 143 78
3 141 108 144
3 144 145 141
3 142 141 145
3 145 144 132
3 139 138 146
3 146 145 139
3 132 139 145
3 145 146 142
3 133 132 144
3 144 112 133
3 68 133 112
3 112 144 108
3 147 148 149
3 149 115 147
3 114 147 115
3 115 149 88
3 147 114 150
3 150 151 147
3 148 147 151
3 151 150 142
3 146 138 152
3 152 151 146
3 142 146 151
3 151 152 148
3 143 142 150
3 150 118 143
3 78 143 118
3 118 150 114
3 153 154 155
3 155 121 153
3 120 153 121
3 121 155 98
3 153 120 156
3 156 157 153
3 154 153 157
3 157 156 148
3 152 138 158
3 158 157 152
3 148 152 157
3 157 158 154
3 149 148 156
3 156 124 149
3 88 149 124
3 124 156 120
3 159 136 140
3 140 127 159
3 126 159 127
3 127 140 58
3 159 126 160
3 160 161 159
3 136 159 161
3 161 160 154
3 158 138 137
3 137 161 158
3 154 158 161
3 161 137 136
3 155 154 160
3 160 130 155
3 98 155 130
3 130 160 126
