ply
format ascii 1.0
comment file created with libplyloader (2012-06-08 22:12:41).
comment Created by Blender 2.61 (sub 0) - www.blender.org, source file: ''
element vertex 42
property float x
property float y
property float z
property float nx
property float ny
property float nz
element face 80
property list uchar uint vertex_indices
end_header
0.2628690004 -0.8090119958 -0.5257380009 -0.03854700178 -0.7487890124 -0.6616870165
-0.2763850093 -0.8506399989 -0.4472149909 -0.03854700178 -0.7487890124 -0.6616870165
-0.1624560058 -0.4999949932 -0.850654006 -0.03854700178 -0.7487890124 -0.6616870165
0.4253230095 -0.3090110123 -0.850654006 0.1875939965 -0.5773450136 -0.7946580052
0.7235999703 -0.5257200003 -0.4472149909 0.4713180065 -0.5831210017 -0.6616870165
0 0 -1 0.1023809984 -0.3150900006 -0.9435229897
0.8506479859 0 -0.5257359743 0.7002279758 -0.2680490017 -0.6616870165
0.4253230095 0.3090110123 -0.850654006 0.6070600152 0 -0.7946559787
0.7235999703 0.5257200003 -0.4472149909 0.7002279758 0.2680490017 -0.6616870165
-0.6881890297 -0.49999699 -0.5257359743 -0.7240440249 -0.1947340071 -0.6616939902
-0.8944249749 0 -0.4472149909 -0.7240440249 -0.1947340071 -0.6616939902
-0.5257300138 0 -0.8506519794 -0.7240440249 -0.1947340071 -0.6616939902
-0.6881890297 0.49999699 -0.5257359743 -0.4089390039 0.6284430027 -0.6616860032
-0.2763850093 0.8506399989 -0.4472149909 -0.4089390039 0.6284430027 -0.6616860032
-0.1624560058 0.4999949932 -0.850654006 -0.4089390039 0.6284430027 -0.6616860032
0.2628690004 0.8090119958 -0.5257380009 0.4713169932 0.5831210017 -0.6616870165
0.9510579705 -0.3090130091 0 0.9049810171 -0.2680490017 -0.3303929865
0.9510579705 0.3090130091 0 0.9822459817 0 -0.1875990033
0.8944249749 0 0.4472149909 0.992076993 0 0.1256310046
0 -1 0 0.02472599968 -0.9435189962 -0.3303950131
0.5877860188 -0.8090170026 0 0.3035309911 -0.934171021 -0.1875970066
0.2763850093 -0.8506399989 0.4472149909 0.3065679967 -0.9435189962 0.1256510019
-0.9510579705 -0.3090130091 0 -0.8896980286 -0.3150919974 -0.3303860128
-0.5877860188 -0.8090170026 0 -0.7946559787 -0.5773479939 -0.1875949949
-0.7235999703 -0.5257200003 0.4472149909 -0.8026069999 -0.5831249952 0.1256480068
-0.5877860188 0.8090170026 0 -0.5745840073 0.7487930059 -0.3303970098
-0.9510579705 0.3090130091 0 -0.7946559787 0.5773479939 -0.1875949949
-0.7235999703 0.5257200003 0.4472149909 -0.8026069999 0.5831249952 0.1256480068
0.5877860188 0.8090170026 0 0.5345900059 0.7778509855 -0.3303950131
0 1 0 0.3035309911 0.934171021 -0.1875970066
0.2763850093 0.8506399989 0.4472149909 0.3065679967 0.9435189962 0.1256510019
0.6881890297 -0.49999699 0.5257359743 0.5745840073 -0.7487930059 0.3303970098
-0.2628690004 -0.8090119958 0.5257380009 -0.5345900059 -0.7778509855 0.3303950131
-0.8506479859 0 0.5257359743 -0.9049810171 0.2680490017 0.3303929865
-0.2628690004 0.8090119958 0.5257380009 -0.02472599968 0.9435189962 0.3303950131
0.6881890297 0.49999699 0.5257359743 0.8896980286 0.3150919974 0.3303860128
0.1624560058 -0.4999949932 0.850654006 0.4089390039 -0.6284430027 0.6616860032
0.5257300138 0 0.8506519794 0.4911189973 -0.3568210006 0.7946580052
0 0 1 0.2680340111 -0.1947370023 0.9435229897
-0.4253230095 -0.3090110123 0.850654006 -0.4713169932 -0.5831210017 0.6616870165
-0.4253230095 0.3090110123 0.850654006 -0.7002279758 0.2680490017 0.6616870165
0.1624560058 0.4999949932 0.850654006 0.03854700178 0.7487890124 0.6616870165
3 0 1 2
3 2 3 0
3 4 0 3
3 2 5 3
3 6 4 3
3 3 7 6
3 8 6 7
3 3 5 7
3 9 10 11
3 11 2 9
3 1 9 2
3 11 5 2
3 12 13 14
3 14 11 12
3 10 12 11
3 14 5 11
3 15 8 7
3 7 14 15
3 13 15 14
3 7 5 14
3 16 4 6
3 6 17 16
3 18 16 17
3 17 6 8
3 19 1 0
3 0 20 19
3 21 19 20
3 20 0 4
3 22 10 9
3 9 23 22
3 24 22 23
3 23 9 1
3 25 13 12
3 12 26 25
3 27 25 26
3 26 12 10
3 28 8 15
3 15 29 28
3 30 28 29
3 29 15 13
3 31 21 20
3 20 16 31
3 18 31 16
3 16 20 4
3 32 24 23
3 23 19 32
3 21 32 19
3 19 23 1
3 33 27 26
3 26 22 33
3 24 33 22
3 22 26 10
3 34 30 29
3 29 25 34
3 27 34 25
3 25 29 13
3 35 18 17
3 17 28 35
3 30 35 28
3 28 17 8
3 36 21 31
3 31 37 36
3 38 36 37
3 37 31 18
3 39 24 32
3 32 36 39
3 38 39 36
3 36 32 21
3 40 27 33
3 33 39 40
3 38 40 39
3 39 33 24
3 41 30 34
3 34 40 41
3 38 41 40
3 40 34 27
3 37 18 35
3 35 41 37
3 38 37 41
3 41 35 30
